<svg width="95" height="39" viewBox="0 0 95 39" fill="none" xmlns="http://www.w3.org/2000/svg">
<circle cx="17" cy="22" r="17" fill="#9B51E0"/>
<circle cx="17" cy="13" r="13" fill="white"/>
<circle cx="17" cy="13" r="6" fill="#9B51E0"/>
<path d="M49.6289 21.0703L53.8008 14.3203H56.9883L51.0469 23.6836V30H48.1758V23.6836L42.2344 14.3203H45.4219L49.5938 21.0703H49.6289ZM64.8398 24.3281C64.8398 23.7266 64.7695 23.1953 64.6289 22.7344C64.4883 22.2734 64.293 21.8867 64.043 21.5742C63.793 21.2617 63.4922 21.0273 63.1406 20.8711C62.7891 20.7148 62.4062 20.6367 61.9922 20.6367C61.5859 20.6367 61.207 20.7148 60.8555 20.8711C60.5117 21.0273 60.2148 21.2617 59.9648 21.5742C59.7148 21.8867 59.5195 22.2734 59.3789 22.7344C59.2383 23.1953 59.168 23.7266 59.168 24.3281C59.168 24.9297 59.2383 25.4609 59.3789 25.9219C59.5195 26.3828 59.7148 26.7695 59.9648 27.082C60.2227 27.3867 60.5234 27.6211 60.8672 27.7852C61.2188 27.9414 61.6016 28.0195 62.0156 28.0195C62.4297 28.0195 62.8086 27.9414 63.1523 27.7852C63.4961 27.6211 63.793 27.3867 64.043 27.082C64.293 26.7695 64.4883 26.3828 64.6289 25.9219C64.7695 25.4609 64.8398 24.9297 64.8398 24.3281ZM67.7109 24.3281C67.7109 25.2188 67.5781 26.0312 67.3125 26.7656C67.0469 27.5 66.6641 28.1289 66.1641 28.6523C65.6719 29.1758 65.0742 29.582 64.3711 29.8711C63.668 30.1523 62.8828 30.293 62.0156 30.293C61.125 30.293 60.3242 30.1523 59.6133 29.8711C58.9102 29.582 58.3125 29.1758 57.8203 28.6523C57.3281 28.1289 56.9492 27.5 56.6836 26.7656C56.4258 26.0312 56.2969 25.2188 56.2969 24.3281C56.2969 23.4375 56.4297 22.625 56.6953 21.8906C56.9609 21.1562 57.3398 20.5273 57.832 20.0039C58.332 19.4805 58.9336 19.0781 59.6367 18.7969C60.3398 18.5078 61.125 18.3633 61.9922 18.3633C62.8828 18.3633 63.6797 18.5078 64.3828 18.7969C65.0938 19.0781 65.6953 19.4805 66.1875 20.0039C66.6797 20.5273 67.0547 21.1562 67.3125 21.8906C67.5781 22.625 67.7109 23.4375 67.7109 24.3281ZM77.543 30.293C77.543 30.1367 77.543 29.9453 77.543 29.7188C77.5508 29.4844 77.5625 29.2891 77.5781 29.1328H77.5547C77.3828 29.2734 77.1836 29.4141 76.957 29.5547C76.7383 29.6875 76.4961 29.8125 76.2305 29.9297C75.9648 30.0391 75.6719 30.125 75.3516 30.1875C75.0312 30.2578 74.7031 30.293 74.3672 30.293C73.7656 30.293 73.1758 30.1875 72.5977 29.9766C72.0273 29.7578 71.5195 29.418 71.0742 28.957C70.6289 28.4883 70.2695 27.8906 69.9961 27.1641C69.7227 26.4375 69.5859 25.5625 69.5859 24.5391C69.5859 23.5156 69.7227 22.6211 69.9961 21.8555C70.2773 21.082 70.6484 20.4375 71.1094 19.9219C71.5703 19.4062 72.0977 19.0195 72.6914 18.7617C73.293 18.4961 73.9102 18.3633 74.543 18.3633C75.2383 18.3633 75.8555 18.5117 76.3945 18.8086C76.9336 19.0977 77.375 19.4688 77.7188 19.9219H77.7656L77.8828 18.6445H80.3203V30.2109C80.3203 30.875 80.2656 31.4453 80.1562 31.9219C80.0469 32.3984 79.8867 32.8203 79.6758 33.1875C79.4258 33.6172 79.1055 33.9922 78.7148 34.3125C78.332 34.6328 77.8906 34.8984 77.3906 35.1094C76.8984 35.3203 76.3555 35.4766 75.7617 35.5781C75.168 35.6875 74.5391 35.7422 73.875 35.7422C73.5 35.7422 73.1328 35.7266 72.7734 35.6953C72.4141 35.6719 72.0742 35.6328 71.7539 35.5781C71.4414 35.5312 71.1523 35.4727 70.8867 35.4023C70.6289 35.3398 70.4102 35.2734 70.2305 35.2031V32.9414C70.7461 33.1133 71.2852 33.2422 71.8477 33.3281C72.418 33.4219 73.0156 33.4688 73.6406 33.4688C74.8828 33.4688 75.8438 33.2266 76.5234 32.7422C77.2031 32.2656 77.543 31.5391 77.543 30.5625V30.293ZM75.0586 28.0781C75.3398 28.0781 75.6055 28.043 75.8555 27.9727C76.1055 27.9023 76.3359 27.8125 76.5469 27.7031C76.7578 27.5938 76.9453 27.4727 77.1094 27.3398C77.2812 27.207 77.4258 27.0742 77.543 26.9414V21.8672C77.2461 21.5156 76.8789 21.2227 76.4414 20.9883C76.0039 20.7539 75.5391 20.6328 75.0469 20.625C74.875 20.625 74.6914 20.6484 74.4961 20.6953C74.3086 20.7344 74.1172 20.8086 73.9219 20.918C73.7266 21.0273 73.5391 21.1758 73.3594 21.3633C73.1875 21.543 73.0352 21.7734 72.9023 22.0547C72.7695 22.3359 72.6602 22.6719 72.5742 23.0625C72.4961 23.4531 72.457 23.9062 72.457 24.4219C72.457 24.9922 72.5117 25.5039 72.6211 25.957C72.7305 26.4023 72.8945 26.7852 73.1133 27.1055C73.332 27.418 73.6016 27.6602 73.9219 27.832C74.25 27.9961 74.6289 28.0781 75.0586 28.0781ZM90.0469 28.793H90C89.8438 28.957 89.6562 29.125 89.4375 29.2969C89.2188 29.4688 88.9688 29.6328 88.6875 29.7891C88.4062 29.9375 88.0938 30.0586 87.75 30.1523C87.4062 30.2461 87.0352 30.293 86.6367 30.293C86.0977 30.293 85.5938 30.207 85.125 30.0352C84.6562 29.8711 84.2539 29.6328 83.918 29.3203C83.582 29 83.3164 28.6172 83.1211 28.1719C82.9336 27.7188 82.8398 27.2148 82.8398 26.6602C82.8398 26.0508 82.9492 25.5039 83.168 25.0195C83.3945 24.5352 83.707 24.125 84.1055 23.7891C84.5039 23.4531 84.9805 23.1992 85.5352 23.0273C86.0898 22.8477 86.7031 22.7578 87.375 22.7578C87.8672 22.7578 88.3203 22.7891 88.7344 22.8516C89.1484 22.9141 89.5117 22.9883 89.8242 23.0742V22.6172C89.8242 22.3516 89.7773 22.0977 89.6836 21.8555C89.5977 21.6055 89.4531 21.3867 89.25 21.1992C89.0547 21.0039 88.7969 20.8516 88.4766 20.7422C88.1562 20.625 87.7656 20.5664 87.3047 20.5664C86.7422 20.5664 86.1797 20.6289 85.6172 20.7539C85.0547 20.8789 84.4453 21.0664 83.7891 21.3164V19.1484C84.3594 18.8984 84.9648 18.707 85.6055 18.5742C86.2461 18.4414 86.918 18.3711 87.6211 18.3633C88.4492 18.3633 89.1719 18.4648 89.7891 18.668C90.4141 18.8711 90.9336 19.1523 91.3477 19.5117C91.7695 19.8633 92.082 20.2812 92.2852 20.7656C92.4961 21.25 92.6016 21.7773 92.6016 22.3477V26.625C92.6016 27.375 92.6094 28.0195 92.625 28.5586C92.6406 29.0977 92.6562 29.5781 92.6719 30H90.1641L90.0469 28.793ZM89.8242 25.1602C89.5586 25.0977 89.2539 25.043 88.9102 24.9961C88.5664 24.9414 88.2188 24.9141 87.8672 24.9141C87.1875 24.9141 86.6484 25.0508 86.25 25.3242C85.8594 25.5898 85.6641 26 85.6641 26.5547C85.6641 26.8125 85.707 27.0391 85.793 27.2344C85.8867 27.4219 86.0078 27.5781 86.1562 27.7031C86.3125 27.8281 86.4922 27.9219 86.6953 27.9844C86.8984 28.0469 87.1133 28.0781 87.3398 28.0781C87.6211 28.0781 87.8867 28.043 88.1367 27.9727C88.3867 27.8945 88.6172 27.8008 88.8281 27.6914C89.0391 27.5742 89.2266 27.4453 89.3906 27.3047C89.5625 27.1641 89.707 27.0273 89.8242 26.8945V25.1602Z" fill="#9B51E0"/>
</svg>
